<?xml version="1.0" encoding="utf-8"?>
<svg xmlns="http://www.w3.org/2000/svg" viewBox="0 0 814 358"><path fill="#d4af37" d="M635.6 88.2c-4.9 4.6-7.2 12.3-7.2 23v17h41v10.9h-41v103.2h-12.9V139.2h-23.3v-10.9h23.3V112c0-28 14-42.1 42.1-42.1 5.2 0 10.6.5 16.3 1.4v11.2c-5.4-.9-10.4-1.5-15.5-1.5-10.3.2-18 2.6-22.8 7.2zm139.3 40.1l-42.2 104-41.3-104h-13.8l48.8 118.4-17.4 42.1h13.1L788 128.3h-13.1zM61.2 136.9l-35-6v-6.1l35-7.1v19.2zm100.7-39.1l-34.6 6.9v43.5l34.6 5.8V97.8z"/><path fill="#52493a" d="M127.4 165.6v15.2c0 12.3-2.8 21.4-8.1 27.2-5.4 5.8-13.7 8.6-25 8.6-11.2 0-19.5-2.9-25-8.6-5.4-5.7-8.1-14.7-8.1-27.2v-26.4l-35-6v29.2c0 22.4 5.5 39.3 16.4 50.5 10.9 11.1 28.3 16.7 51.8 16.7 23.3 0 40.4-5.5 51.3-16.7 10.9-11.2 16.3-28 16.3-50.4v-6.1l-34.6-6zM280.5 184.4c5.5 5.2 8.3 12.9 8.3 23 0 7.7-2.2 14.4-6.5 20-4.3 5.5-10.4 9.8-18.7 12.7s-18.1 4.5-29.8 4.5c-7.4.2-14.6-.3-21.5-1.2s-13.4-2.2-19.2-4v-24.6c6.1 1.7 12.6 3.1 19.5 4 6.9.9 13.8 1.4 20.6 1.4 8 0 13.7-.9 17.2-2.9 3.4-1.8 5.2-4.8 5.2-8.4 0-2.8-.8-4.9-2.5-6.5s-4.5-2.6-8.6-3.4l-20.6-3.2c-11.8-1.8-20.4-5.5-25.7-11.1-5.2-5.5-7.8-12.9-7.8-22.3 0-11.5 4.9-20.7 14.6-27.3s24.3-9.8 43.6-9.8c6 0 12 .3 17.8 1.1 6 .8 11.2 1.7 15.8 2.9v24.6c-4.8-1.4-10.1-2.3-15.8-3.1-5.8-.8-11.5-1.1-17.4-1.1-9.5 0-16.3 1.1-20 3.2-3.7 2.2-5.7 4.9-5.7 8.4 0 2.5.8 4.6 2.5 6 1.7 1.5 4.5 2.6 8.4 3.4l20.6 3.2c11.7 1.9 20.2 5.4 25.7 10.5zm134.7-38.6c4 7.2 5.8 17.2 5.8 29.8v67h-29l-2.5-11.1H388c-3.8 4.5-8.4 7.7-14.1 9.8-5.7 2.2-11.8 3.2-18.6 3.2-8.4 0-15.8-1.4-21.8-4.1s-10.6-6.8-13.8-11.8c-3.1-5.1-4.8-10.9-4.8-17.5 0-10.9 4.1-19.5 12.3-25.5 8.1-6 21-9.5 38.6-10.8l21-1.5v-.5c0-5.5-.9-9.8-2.8-12.9-1.8-3.2-4.9-5.4-8.9-6.8-4.1-1.4-9.7-2-16.7-2-4.9 0-10.4.5-16.6 1.2-6 .8-11.7 2-16.9 3.7v-25.5c5.8-1.7 12.3-2.9 19.4-3.8s13.7-1.4 20-1.4c13.5 0 24.4 1.5 32.7 4.8 8.2 3.3 14.2 8.5 18.2 15.7zm-28.6 46.7l-17.7 1.4c-6.8.6-11.7 2-14.7 4.3-2.9 2.3-4.5 5.5-4.5 9.8 0 4.1 1.4 7.4 4.1 9.7 2.8 2.3 6.9 3.4 12.3 3.4 3.7 0 7.4-.6 10.9-1.8 3.5-1.2 6.8-3.1 9.5-5.7v-21.1zm71.2 49.9H493V72.1h-35.2v170.3zm72.9.2h35.2V127.2h-35.2v115.4zm17.7-167.4c-9.8 0-17.7 7.9-17.7 17.7s7.9 17.7 17.7 17.7 17.7-7.9 17.7-17.7-8-17.7-17.7-17.7z"/></svg>